<?xml version="1.0" encoding="utf-8"?>
<!-- Generator: Adobe Illustrator 16.0.0, SVG Export Plug-In . SVG Version: 6.00 Build 0)  -->
<!DOCTYPE svg PUBLIC "-//W3C//DTD SVG 1.0//EN" "http://www.w3.org/TR/2001/REC-SVG-20010904/DTD/svg10.dtd">
<svg version="1.0" id="Layer_1" xmlns="http://www.w3.org/2000/svg" xmlns:xlink="http://www.w3.org/1999/xlink" x="0px" y="0px"
	 width="708.66px" height="708.66px" viewBox="0 0 708.66 708.66" enable-background="new 0 0 708.66 708.66" xml:space="preserve">
<g>
	<path fill="none" stroke="#373431" stroke-width="12" stroke-linecap="round" stroke-linejoin="round" stroke-miterlimit="10" d="
		M602.359,354.337c0,136.979-111.063,248.029-248.029,248.029c-136.99,0-248.053-111.051-248.053-248.029
		c0-136.991,111.063-248.041,248.053-248.041C491.297,106.296,602.359,217.346,602.359,354.337z"/>
	<path fill="none" stroke="#373431" stroke-width="12" stroke-linecap="round" stroke-linejoin="round" stroke-miterlimit="10" d="
		M389.756,354.337c0,19.568-15.869,35.432-35.426,35.432c-19.58,0-35.449-15.863-35.449-35.432
		c0-19.574,15.869-35.438,35.449-35.438C373.886,318.898,389.756,334.763,389.756,354.337z"/>
	<path fill="none" stroke="#373431" stroke-width="12" stroke-linecap="round" stroke-linejoin="round" stroke-miterlimit="10" d="
		M557.998,293.324c-9.766-32.697-27.516-63.509-53.346-89.327c-83.035-83.028-217.633-83.028-300.668,0.006
		c83.035-83.034,217.633-83.034,300.668-0.006C530.482,229.815,548.232,260.627,557.998,293.324z"/>
	<path fill="none" stroke="#373431" stroke-width="12" stroke-linecap="round" stroke-linejoin="round" stroke-miterlimit="10" d="
		M203.984,504.67c83.035,83.022,217.657,83.022,300.668,0C421.641,587.692,287.019,587.692,203.984,504.67z"/>
	<path fill="none" stroke="#373431" stroke-width="12" stroke-linecap="round" stroke-linejoin="round" stroke-miterlimit="10" d="
		M600.87,327.615c-1.855-17.237-5.518-33.906-10.718-49.898c-47.756,25.496-98.782,42.556-150.932,51.485
		c-10.84-36.677-44.729-63.454-84.891-63.454c-40.211,0-74.074,26.777-84.914,63.46c-52.15-8.924-103.177-25.983-150.932-51.473
		c-5.201,15.992-8.863,32.667-10.719,49.897c51.369,27.693,106.424,45.888,162.676,55.043
		c11.842,35.005,44.874,60.244,83.889,60.244c38.99,0,72.023-25.245,83.865-60.256C494.446,373.509,549.502,355.308,600.87,327.615z
		"/>
</g>
</svg>
